{"glyphs":{":":{"x_min":0,"x_max":192,"ha":192,"o":"m 172 66 q 172 35 150 14 q 129 -8 98 -8 q 67 -8 46 14 q 25 35 25 66 q 25 96 46 118 q 67 139 98 139 q 129 139 150 118 q 172 96 172 66 z m 172 348 q 172 318 150 296 q 129 275 98 275 q 67 275 46 296 q 25 318 25 348 q 25 379 46 400 q 67 422 98 422 q 129 422 150 400 q 172 379 172 348 z"},"$":{"x_min":0,"x_max":680,"ha":680,"o":"m 259 824 l 398 824 l 398 744 q 428 740 454 732 q 480 725 504 714 q 529 703 553 688 q 577 673 604 654 l 526 544 q 474 580 426 599 q 378 618 325 618 q 307 618 284 614 q 261 609 240 599 q 220 589 206 574 q 193 558 193 536 q 193 514 209 499 q 225 484 250 474 q 275 464 305 457 q 335 450 363 443 q 384 438 412 433 q 441 428 472 419 q 502 410 532 395 q 562 380 586 356 q 609 333 624 298 q 638 264 638 215 q 638 163 620 123 q 603 83 572 55 q 540 27 496 12 q 452 -4 398 -8 l 398 -89 l 259 -89 l 259 0 q 226 6 198 16 q 171 25 146 38 q 120 52 96 68 q 72 83 46 101 l 122 213 q 177 175 236 148 q 294 120 358 120 q 392 120 418 128 q 444 137 462 150 q 480 164 489 182 q 498 199 498 216 q 498 238 484 254 q 471 269 448 279 q 426 289 396 296 q 365 303 332 309 q 310 313 281 318 q 252 324 221 334 q 190 343 160 358 q 130 374 106 398 q 82 421 68 454 q 53 486 53 530 q 53 582 70 620 q 88 657 117 682 q 146 707 183 722 q 220 736 259 742 z"},"?":{"x_min":0,"x_max":578,"ha":578,"o":"m 472 677 q 498 649 512 614 q 527 579 527 541 q 527 492 512 458 q 498 423 476 400 q 454 376 429 360 q 404 345 382 333 q 365 324 351 316 q 337 307 330 298 q 313 274 309 250 q 305 226 307 212 l 167 212 q 165 244 174 289 q 184 334 217 380 q 238 409 264 426 q 291 442 317 456 q 336 466 350 474 q 363 483 372 492 q 380 501 384 512 q 387 524 387 541 q 387 547 384 559 q 381 571 370 582 q 358 594 336 602 q 313 611 273 611 q 240 611 216 602 q 192 592 176 576 q 159 561 149 542 q 139 524 133 506 l 0 549 q 6 567 22 600 q 38 634 70 668 q 101 701 150 726 q 200 751 273 751 q 313 751 345 744 q 377 737 402 726 q 426 716 443 703 q 460 690 472 677 z m 309 0 l 169 0 l 169 149 l 309 149 z"},"<":{"x_min":0,"x_max":553,"ha":553,"o":"m 498 636 l 498 494 l 196 363 l 498 233 l 498 90 l 53 299 l 53 427 z"},"'":{"x_min":0,"x_max":230,"ha":230,"o":"m 164 524 l 63 524 l 46 742 l 180 742 z"},"=":{"x_min":0,"x_max":562,"ha":562,"o":"m 506 423 l 51 423 l 51 546 l 506 546 z m 506 181 l 51 181 l 51 304 l 506 304 z"},"a":{"x_min":0,"x_max":774,"ha":774,"o":"m 6 0 l 380 731 l 394 731 l 768 0 l 616 0 l 559 115 l 214 115 l 158 0 z m 282 237 l 491 237 l 387 458 z"},"L":{"x_min":0,"x_max":615,"ha":615,"o":"m 607 124 l 607 0 l 80 0 l 80 732 l 220 732 l 220 124 z"},"3":{"x_min":0,"x_max":600,"ha":600,"o":"m 431 368 q 451 361 472 349 q 493 337 510 318 q 528 298 539 268 q 550 239 550 198 q 550 188 548 174 q 547 159 542 142 q 538 125 530 107 q 521 89 507 71 q 486 45 460 28 q 433 12 404 2 q 376 -7 348 -10 q 320 -14 295 -14 q 231 -14 186 8 q 141 29 112 60 q 82 92 65 127 q 48 162 41 188 l 175 227 q 176 223 180 204 q 184 185 196 164 q 209 143 232 126 q 255 109 295 109 q 353 109 382 136 q 410 162 410 198 q 410 236 398 259 q 386 282 363 295 q 340 308 306 312 q 271 317 226 319 l 226 427 q 269 429 304 432 q 338 436 362 447 q 385 458 398 479 q 410 500 410 536 q 410 572 382 598 q 353 624 295 624 q 255 624 232 607 q 209 590 196 569 q 184 548 180 530 q 176 511 175 507 l 41 546 q 48 572 65 607 q 82 642 112 674 q 141 705 186 726 q 231 748 295 748 q 365 748 414 728 q 463 709 493 678 q 523 648 536 610 q 550 573 550 536 q 550 495 540 468 q 529 440 512 420 q 494 401 473 389 q 452 377 431 368 z"},";":{"x_min":0,"x_max":197,"ha":197,"o":"m 172 78 q 165 107 144 124 q 124 140 96 139 q 65 137 44 115 q 24 93 26 62 q 27 32 49 12 q 71 -9 102 -8 q 98 -33 82 -52 q 65 -72 33 -82 l 50 -119 q 85 -111 112 -90 q 138 -69 154 -42 q 170 -14 174 18 q 179 49 172 78 z m 173 348 q 173 318 152 296 q 130 275 99 275 q 68 275 47 296 q 26 318 26 348 q 26 379 47 400 q 68 422 99 422 q 130 422 152 400 q 173 379 173 348 z"},"J":{"x_min":0,"x_max":609,"ha":609,"o":"m 532 731 l 532 272 q 532 208 512 155 q 493 102 458 64 q 422 27 372 6 q 322 -14 261 -14 q 175 -14 112 26 q 50 66 18 137 l 145 194 q 151 180 161 166 q 171 151 185 140 q 199 128 218 120 q 236 113 261 113 q 304 113 330 130 q 355 147 369 172 q 383 197 388 224 q 392 251 392 272 l 392 731 z"},"V":{"x_min":0,"x_max":721,"ha":721,"o":"m 716 731 l 368 0 l 360 0 l 13 731 l 167 731 l 364 307 l 561 731 z"},"\"":{"x_min":0,"x_max":444,"ha":444,"o":"m 164 524 l 63 524 l 46 742 l 180 742 z m 375 524 l 274 524 l 258 742 l 392 742 z"},"7":{"x_min":0,"x_max":601,"ha":601,"o":"m 565 733 l 565 595 l 231 0 l 71 0 l 421 608 l 42 608 l 42 733 z"},"S":{"x_min":0,"x_max":680,"ha":680,"o":"m 51 96 l 127 208 q 182 170 240 142 q 299 115 363 115 q 397 115 423 124 q 449 132 467 146 q 485 159 494 176 q 503 194 503 211 q 503 233 490 248 q 476 264 454 274 q 431 284 400 291 q 370 298 337 304 q 315 308 286 314 q 257 319 226 328 q 195 338 165 354 q 135 369 111 392 q 87 416 72 448 q 58 481 58 525 q 58 589 84 632 q 110 674 150 698 q 191 723 240 733 q 290 743 336 743 q 382 743 418 737 q 454 731 485 720 q 516 708 546 690 q 575 673 609 649 l 531 539 q 479 575 431 594 q 383 613 330 613 q 312 613 289 608 q 266 604 246 594 q 225 584 212 568 q 198 553 198 531 q 198 509 214 494 q 230 479 255 469 q 280 459 310 452 q 340 445 368 438 q 389 433 418 428 q 446 423 476 414 q 507 405 537 390 q 567 375 590 352 q 614 328 628 294 q 643 259 643 210 q 643 153 623 111 q 603 69 566 42 q 529 14 478 0 q 427 -14 365 -14 q 308 -14 264 -6 q 221 3 185 18 q 149 32 117 52 q 85 72 51 96 z"},"}":{"x_min":0,"x_max":412,"ha":412,"o":"m 142 12 q 152 24 157 43 q 162 62 164 82 q 167 103 167 122 q 167 142 167 156 q 169 184 168 212 q 168 240 172 267 q 175 294 185 320 q 195 346 218 370 q 196 384 185 413 q 174 442 170 474 q 165 507 165 537 q 165 567 167 584 q 167 597 167 617 q 167 637 164 658 q 162 678 157 697 q 152 716 142 728 q 126 746 105 756 q 84 767 64 772 q 45 776 31 777 q 17 778 17 778 l 17 912 q 23 912 48 910 q 72 908 106 899 q 139 890 176 870 q 214 850 244 814 q 266 787 278 756 q 290 724 295 692 q 300 660 300 631 q 301 602 301 581 q 301 553 301 528 q 301 503 306 484 q 311 466 324 454 q 336 442 362 439 l 362 301 q 335 296 322 286 q 309 277 304 260 q 300 243 300 218 q 301 194 301 159 q 301 138 300 108 q 300 79 295 48 q 290 16 278 -16 q 266 -47 244 -74 q 214 -110 178 -130 q 142 -149 108 -159 q 75 -169 50 -171 q 25 -173 18 -173 l 17 -173 l 17 -39 q 17 -39 31 -38 q 45 -37 64 -32 q 84 -27 105 -17 q 126 -7 142 12 z"},"Z":{"x_min":0,"x_max":702,"ha":702,"o":"m 675 714 l 267 130 l 661 130 l 661 0 l 21 0 l 21 16 l 430 602 l 52 602 l 52 731 l 675 731 z"},"x":{"x_min":0,"x_max":754,"ha":754,"o":"m 296 362 l 18 731 l 193 731 l 383 468 l 573 731 l 747 731 l 470 362 l 742 0 l 567 0 l 383 255 l 199 0 l 24 0 z"},")":{"x_min":0,"x_max":359,"ha":359,"o":"m 65 699 q 39 727 10 747 l 89 852 q 110 837 130 820 q 149 804 166 785 q 244 703 284 600 q 325 496 325 366 q 325 237 284 133 q 244 29 166 -53 q 149 -72 130 -88 q 110 -105 89 -120 l 10 -14 q 25 -3 38 8 q 52 20 65 33 q 125 96 155 180 q 185 264 185 366 q 185 468 155 552 q 125 636 65 699 z"},"&":{"x_min":0,"x_max":685,"ha":685,"o":"m 552 -14 l 458 82 q 424 53 393 35 q 362 17 336 6 q 309 -4 288 -8 q 267 -11 254 -12 q 211 -14 173 -2 q 135 10 105 34 q 75 58 56 92 q 36 125 31 166 q 24 226 48 271 q 71 316 116 354 q 127 363 144 376 q 162 388 174 396 q 139 438 124 484 q 108 530 115 578 q 120 620 142 654 q 163 688 197 711 q 232 734 274 742 q 317 749 358 738 q 399 727 432 699 q 465 671 482 633 q 500 595 499 554 q 498 512 479 473 q 463 441 434 416 q 404 392 367 370 l 455 279 q 491 330 508 361 q 526 392 526 393 l 647 334 q 646 332 626 295 q 605 258 563 199 q 559 194 556 190 q 553 186 550 181 l 657 67 z m 245 303 q 218 288 198 271 q 194 268 188 261 q 181 254 175 243 q 169 232 166 216 q 162 201 165 181 q 168 153 192 133 q 215 113 248 111 q 272 110 292 116 q 311 122 326 131 q 342 140 354 150 q 366 160 375 169 z m 242 569 q 239 540 252 510 q 265 479 284 459 q 298 467 314 478 q 329 489 340 500 q 371 532 371 575 q 371 601 353 616 q 335 632 312 633 q 288 634 267 619 q 246 604 242 569 z"},"_":{"x_min":0,"x_max":668,"ha":668,"o":"m 607 -123 l 53 -123 l 53 0 l 607 0 z"},"v":{"x_min":0,"x_max":721,"ha":721,"o":"m 716 731 l 368 0 l 360 0 l 13 731 l 167 731 l 364 307 l 561 731 z"},"O":{"x_min":0,"x_max":846,"ha":846,"o":"m 422 -14 q 344 -14 275 16 q 206 46 154 98 q 103 149 73 218 q 43 287 43 366 q 43 444 73 514 q 103 583 154 634 q 206 686 275 716 q 344 746 422 746 q 501 746 570 716 q 639 686 690 634 q 742 583 772 514 q 802 444 802 366 q 802 287 772 218 q 742 149 690 98 q 639 46 570 16 q 501 -14 422 -14 z m 422 615 q 372 615 328 594 q 285 574 252 540 q 220 506 201 460 q 182 415 182 366 q 182 316 201 271 q 220 226 252 192 q 285 157 328 136 q 372 116 422 116 q 472 116 516 136 q 559 157 592 192 q 624 226 643 271 q 662 316 662 366 q 662 415 643 460 q 624 506 592 540 q 559 574 516 594 q 472 615 422 615 z"},"(":{"x_min":0,"x_max":395,"ha":395,"o":"m 305 699 q 245 636 215 552 q 185 468 185 366 q 185 264 215 180 q 245 96 305 33 q 318 20 332 8 q 345 -3 360 -14 l 281 -120 q 260 -105 240 -88 q 221 -72 204 -53 q 126 29 86 133 q 45 237 45 366 q 45 496 86 600 q 126 703 204 785 q 221 804 240 820 q 260 837 281 852 l 360 747 q 331 727 305 699 z"},"C":{"x_min":0,"x_max":778,"ha":778,"o":"m 750 180 q 726 136 691 100 q 656 65 614 40 q 571 14 522 0 q 472 -14 419 -14 q 341 -14 272 16 q 203 46 152 98 q 100 149 70 218 q 40 287 40 365 q 40 443 70 512 q 100 581 152 632 q 203 684 272 714 q 341 744 419 744 q 472 744 522 730 q 571 716 614 690 q 656 665 691 630 q 726 594 750 551 l 619 498 q 603 522 582 543 q 560 564 534 580 q 508 596 479 605 q 450 614 419 614 q 369 614 326 594 q 282 573 250 539 q 218 505 199 460 q 180 414 180 365 q 180 315 199 270 q 218 225 250 191 q 282 157 326 136 q 369 116 419 116 q 450 116 479 125 q 508 134 534 150 q 560 166 582 188 q 603 209 619 233 z"},"W":{"x_min":0,"x_max":991,"ha":991,"o":"m 981 731 l 708 0 l 694 0 l 496 426 l 296 -1 l 283 -1 l 13 731 l 162 731 l 305 330 l 491 731 l 500 731 l 686 329 l 832 731 z"},"A":{"x_min":0,"x_max":774,"ha":774,"o":"m 6 0 l 380 731 l 394 731 l 768 0 l 616 0 l 559 115 l 214 115 l 158 0 z m 282 237 l 491 237 l 387 458 z"},"f":{"x_min":0,"x_max":652,"ha":652,"o":"m 220 607 l 220 427 l 573 427 l 573 298 l 220 298 l 220 0 l 80 0 l 80 732 l 618 732 l 618 607 z"},"Q":{"x_min":0,"x_max":827,"ha":827,"o":"m 803 128 l 803 -1 l 439 -1 q 337 -1 262 28 q 188 58 139 108 q 90 159 66 227 q 43 295 43 372 q 43 449 72 517 q 102 585 152 636 q 203 686 270 716 q 338 745 415 745 q 492 745 560 716 q 628 686 678 636 q 729 585 758 517 q 788 449 788 372 q 788 339 780 304 q 773 269 756 236 q 739 203 712 175 q 686 147 647 128 z m 182 372 q 182 324 200 281 q 219 238 250 206 q 282 173 324 154 q 367 135 415 135 q 463 135 506 154 q 548 173 580 206 q 611 238 630 281 q 648 324 648 372 q 648 420 630 464 q 611 507 580 539 q 548 571 506 590 q 463 609 415 609 q 367 609 324 590 q 282 571 250 539 q 219 507 200 464 q 182 420 182 372 z"},"w":{"x_min":0,"x_max":991,"ha":991,"o":"m 981 731 l 708 0 l 694 0 l 496 426 l 296 -1 l 283 -1 l 13 731 l 162 731 l 305 330 l 491 731 l 500 731 l 686 329 l 832 731 z"},"-":{"x_min":0,"x_max":409,"ha":409,"o":"m 365 315 l 38 315 l 38 438 l 365 438 z"},"E":{"x_min":0,"x_max":683,"ha":683,"o":"m 219 608 l 219 425 l 573 425 l 573 298 l 219 298 l 219 126 l 618 126 l 618 0 l 80 0 l 80 732 l 618 732 l 618 608 z"},"s":{"x_min":0,"x_max":680,"ha":680,"o":"m 51 96 l 127 208 q 182 170 240 142 q 299 115 363 115 q 397 115 423 124 q 449 132 467 146 q 485 159 494 176 q 503 194 503 211 q 503 233 490 248 q 476 264 454 274 q 431 284 400 291 q 370 298 337 304 q 315 308 286 314 q 257 319 226 328 q 195 338 165 354 q 135 369 111 392 q 87 416 72 448 q 58 481 58 525 q 58 589 84 632 q 110 674 150 698 q 191 723 240 733 q 290 743 336 743 q 382 743 418 737 q 454 731 485 720 q 516 708 546 690 q 575 673 609 649 l 531 539 q 479 575 431 594 q 383 613 330 613 q 312 613 289 608 q 266 604 246 594 q 225 584 212 568 q 198 553 198 531 q 198 509 214 494 q 230 479 255 469 q 280 459 310 452 q 340 445 368 438 q 389 433 418 428 q 446 423 476 414 q 507 405 537 390 q 567 375 590 352 q 614 328 628 294 q 643 259 643 210 q 643 153 623 111 q 603 69 566 42 q 529 14 478 0 q 427 -14 365 -14 q 308 -14 264 -6 q 221 3 185 18 q 149 32 117 52 q 85 72 51 96 z"},">":{"x_min":0,"x_max":553,"ha":553,"o":"m 498 427 l 498 299 l 53 90 l 53 233 l 355 363 l 53 494 l 53 636 z"},"l":{"x_min":0,"x_max":615,"ha":615,"o":"m 607 124 l 607 0 l 80 0 l 80 732 l 220 732 l 220 124 z"},"8":{"x_min":0,"x_max":621,"ha":621,"o":"m 453 387 q 477 381 500 366 q 523 350 540 327 q 557 304 568 276 q 578 248 578 218 q 578 159 557 115 q 536 71 499 42 q 462 14 413 0 q 364 -14 308 -14 q 252 -14 204 0 q 155 14 118 42 q 81 71 60 115 q 39 159 39 218 q 39 248 50 276 q 61 304 78 326 q 96 349 118 365 q 141 381 164 387 q 148 394 131 408 q 114 423 100 444 q 85 464 76 488 q 67 512 67 537 q 67 582 86 620 q 105 657 138 684 q 170 712 214 728 q 258 743 308 743 q 358 743 402 728 q 446 712 479 684 q 512 657 531 620 q 550 582 550 537 q 550 511 542 486 q 535 462 522 442 q 509 422 492 408 q 474 393 453 387 z m 207 522 q 207 500 215 484 q 223 468 237 457 q 251 446 270 440 q 288 435 308 435 q 350 435 380 457 q 409 479 409 522 q 409 549 401 567 q 393 585 379 596 q 365 608 347 613 q 329 618 308 618 q 288 618 270 612 q 251 607 237 596 q 223 584 215 566 q 207 548 207 522 z m 308 111 q 334 111 358 116 q 381 121 398 133 q 416 145 426 166 q 437 186 437 218 q 437 243 426 263 q 416 283 398 298 q 381 312 358 320 q 334 327 308 327 q 282 327 259 320 q 236 313 218 299 q 201 285 190 264 q 180 244 180 218 q 180 186 190 166 q 201 145 218 133 q 236 121 259 116 q 282 111 308 111 z"},"\\":{"x_min":0,"x_max":493,"ha":493,"o":"m 1 834 l 134 834 l 494 -138 l 361 -138 z"},"e":{"x_min":0,"x_max":683,"ha":683,"o":"m 219 608 l 219 425 l 573 425 l 573 298 l 219 298 l 219 126 l 618 126 l 618 0 l 80 0 l 80 732 l 618 732 l 618 608 z"},"b":{"x_min":0,"x_max":695,"ha":695,"o":"m 616 529 q 616 507 607 482 q 598 457 582 436 q 567 415 545 400 q 523 386 497 385 q 524 383 550 370 q 577 356 598 333 q 619 310 632 280 q 646 250 646 216 q 646 156 628 114 q 610 73 579 48 q 548 22 506 11 q 465 0 418 0 l 80 0 l 80 732 l 402 732 q 446 732 485 724 q 524 715 553 692 q 582 670 599 630 q 616 591 616 529 z m 418 124 q 436 124 452 132 q 468 141 480 156 q 492 170 499 188 q 506 205 506 223 q 506 260 478 285 q 451 310 403 310 l 220 310 l 220 124 z m 220 435 l 392 435 q 413 435 428 443 q 444 451 454 464 q 465 477 470 494 q 476 510 476 526 q 476 542 470 557 q 464 572 454 583 q 444 594 430 601 q 417 608 402 608 l 220 608 z"},"%":{"x_min":0,"x_max":960,"ha":960,"o":"m 220 328 q 179 328 145 344 q 111 359 86 386 q 61 413 47 450 q 33 488 33 532 q 33 577 47 614 q 61 652 86 679 q 111 706 145 722 q 179 737 220 737 q 260 737 294 722 q 329 706 354 679 q 379 652 393 614 q 407 577 407 532 q 407 488 392 451 q 378 414 353 386 q 328 359 294 344 q 260 328 220 328 z m 735 -15 q 694 -15 660 0 q 626 16 601 43 q 576 70 562 108 q 548 145 548 190 q 548 234 562 272 q 576 309 601 336 q 626 363 660 378 q 694 394 735 394 q 775 394 810 378 q 844 363 868 336 q 893 309 907 272 q 921 234 921 190 q 921 146 907 108 q 893 71 868 44 q 843 16 809 0 q 775 -15 735 -15 z m 322 0 l 756 733 l 642 733 l 208 0 z m 735 288 q 713 288 700 276 q 688 263 682 246 q 675 230 674 214 q 672 197 672 190 q 672 185 674 168 q 675 152 681 135 q 687 118 700 104 q 712 91 735 91 q 751 91 763 100 q 775 110 783 125 q 791 140 794 158 q 798 175 798 190 q 798 204 795 221 q 792 238 784 253 q 777 268 765 278 q 753 288 735 288 z m 220 630 q 198 630 186 618 q 173 605 166 588 q 160 572 158 556 q 157 539 157 532 q 157 527 158 511 q 160 495 166 478 q 172 461 184 448 q 197 434 220 434 q 236 434 248 444 q 260 453 268 468 q 276 483 280 500 q 283 517 283 532 q 283 546 280 563 q 277 580 270 595 q 262 610 250 620 q 238 630 220 630 z"},"m":{"x_min":0,"x_max":898,"ha":898,"o":"m 817 731 l 817 0 l 677 0 l 677 370 l 448 95 l 220 370 l 220 0 l 80 0 l 80 731 l 89 731 l 448 309 l 808 731 z"},"#":{"x_min":0,"x_max":856,"ha":856,"o":"m 690 183 l 555 183 l 483 0 l 345 0 l 417 183 l 288 183 l 217 0 l 79 0 l 150 183 l 18 183 l 68 312 l 201 312 l 246 427 l 114 427 l 164 556 l 296 556 l 365 733 l 503 733 l 434 556 l 562 556 l 632 733 l 770 733 l 700 556 l 836 556 l 786 427 l 650 427 l 605 312 l 740 312 z m 512 427 l 384 427 l 339 312 l 467 312 z"},",":{"x_min":0,"x_max":210,"ha":210,"o":"m 172 78 q 179 49 174 18 q 170 -14 154 -42 q 138 -69 112 -90 q 86 -111 50 -119 l 33 -82 q 65 -72 82 -52 q 98 -33 102 -8 q 72 -9 50 12 q 28 32 26 62 q 24 93 45 115 q 66 137 96 139 q 124 140 144 124 q 165 107 172 78 z"},"n":{"x_min":0,"x_max":796,"ha":796,"o":"m 701 0 l 219 435 l 219 0 l 80 0 l 80 731 l 95 731 l 576 289 l 576 731 l 716 731 l 716 0 z"},"h":{"x_min":0,"x_max":800,"ha":800,"o":"m 720 732 l 720 0 l 581 0 l 581 291 l 219 291 l 219 0 l 80 0 l 80 732 l 219 732 l 219 416 l 581 416 l 581 732 z"},"z":{"x_min":0,"x_max":702,"ha":702,"o":"m 675 714 l 267 130 l 661 130 l 661 0 l 21 0 l 21 16 l 430 602 l 52 602 l 52 731 l 675 731 z"},"B":{"x_min":0,"x_max":695,"ha":695,"o":"m 616 529 q 616 507 607 482 q 598 457 582 436 q 567 415 545 400 q 523 386 497 385 q 524 383 550 370 q 577 356 598 333 q 619 310 632 280 q 646 250 646 216 q 646 156 628 114 q 610 73 579 48 q 548 22 506 11 q 465 0 418 0 l 80 0 l 80 732 l 402 732 q 446 732 485 724 q 524 715 553 692 q 582 670 599 630 q 616 591 616 529 z m 418 124 q 436 124 452 132 q 468 141 480 156 q 492 170 499 188 q 506 205 506 223 q 506 260 478 285 q 451 310 403 310 l 220 310 l 220 124 z m 220 435 l 392 435 q 413 435 428 443 q 444 451 454 464 q 465 477 470 494 q 476 510 476 526 q 476 542 470 557 q 464 572 454 583 q 444 594 430 601 q 417 608 402 608 l 220 608 z"},"K":{"x_min":0,"x_max":735,"ha":735,"o":"m 527 0 l 220 333 l 220 0 l 80 0 l 80 732 l 220 732 l 220 360 l 511 731 l 683 731 l 382 353 l 712 0 z"},"R":{"x_min":0,"x_max":720,"ha":720,"o":"m 219 0 l 80 0 l 80 732 l 412 732 q 468 732 514 714 q 561 695 594 662 q 627 628 646 582 q 664 535 664 480 q 664 397 622 335 q 581 273 512 246 q 605 124 695 0 l 528 0 q 484 57 442 115 q 400 173 358 233 l 219 233 z m 219 357 l 412 357 q 431 357 452 364 q 472 372 488 388 q 504 403 514 426 q 525 449 525 480 q 525 496 521 518 q 517 540 505 560 q 493 580 471 594 q 449 608 412 608 l 219 608 z"},"T":{"x_min":0,"x_max":622,"ha":622,"o":"m 606 608 l 397 608 l 397 0 l 257 0 l 257 608 l 47 608 l 47 732 l 606 732 z"},"P":{"x_min":0,"x_max":678,"ha":678,"o":"m 406 732 q 460 732 508 712 q 555 691 590 656 q 625 621 646 574 q 666 526 666 472 q 666 418 648 372 q 630 326 595 292 q 560 257 506 238 q 453 218 383 218 l 220 218 l 220 0 l 80 0 l 80 732 z m 406 344 q 437 344 460 354 q 483 365 498 383 q 512 401 519 424 q 526 447 526 472 q 526 497 517 522 q 508 546 491 565 q 474 584 449 596 q 424 608 391 608 l 220 608 l 220 344 z"},"|":{"x_min":0,"x_max":286,"ha":286,"o":"m 193 -106 l 92 -106 l 92 836 l 193 836 z"},"t":{"x_min":0,"x_max":622,"ha":622,"o":"m 606 608 l 397 608 l 397 0 l 257 0 l 257 608 l 47 608 l 47 732 l 606 732 z"},"M":{"x_min":0,"x_max":898,"ha":898,"o":"m 817 731 l 817 0 l 677 0 l 677 370 l 448 95 l 220 370 l 220 0 l 80 0 l 80 731 l 89 731 l 448 309 l 808 731 z"},"g":{"x_min":0,"x_max":828,"ha":828,"o":"m 790 400 q 789 379 789 361 q 788 345 788 330 q 788 314 787 306 q 781 237 750 178 q 718 119 668 76 q 619 34 554 10 q 490 -14 419 -14 q 341 -14 272 16 q 203 46 152 98 q 100 149 70 218 q 40 287 40 365 q 40 443 70 512 q 100 582 152 634 q 203 685 272 715 q 341 745 419 745 q 518 745 600 699 q 683 653 734 576 l 614 503 q 582 550 530 582 q 479 614 419 614 q 369 614 326 594 q 282 573 250 539 q 217 505 198 460 q 179 414 179 365 q 179 315 198 270 q 217 225 250 191 q 282 157 326 136 q 369 116 419 116 q 457 116 492 128 q 527 139 556 160 q 585 181 606 210 q 628 239 638 274 l 368 274 l 368 400 z"},"j":{"x_min":0,"x_max":609,"ha":609,"o":"m 532 731 l 532 272 q 532 208 512 155 q 493 102 458 64 q 422 27 372 6 q 322 -14 261 -14 q 175 -14 112 26 q 50 66 18 137 l 145 194 q 151 180 161 166 q 171 151 185 140 q 199 128 218 120 q 236 113 261 113 q 304 113 330 130 q 355 147 369 172 q 383 197 388 224 q 392 251 392 272 l 392 731 z"},"i":{"x_min":0,"x_max":340,"ha":340,"o":"m 240 0 l 100 0 l 100 731 l 240 731 z"},"y":{"x_min":0,"x_max":709,"ha":709,"o":"m 704 731 q 676 685 640 626 q 603 567 565 506 q 527 444 490 384 q 453 325 425 277 l 425 0 l 285 0 l 285 277 q 220 391 147 504 q 74 617 8 731 l 171 731 q 216 656 263 576 q 310 496 355 421 q 377 456 401 496 q 425 536 449 576 q 473 617 496 656 q 520 696 541 731 z"},"@":{"x_min":0,"x_max":847,"ha":847,"o":"m 700 661 q 806 572 806 405 q 806 236 727 176 q 702 157 672 152 q 641 146 609 155 q 586 161 568 174 q 551 187 538 204 q 515 181 482 167 q 449 153 407 153 q 317 153 266 208 q 215 264 215 361 q 215 407 229 445 q 243 483 268 510 q 294 537 330 552 q 365 567 408 567 q 440 567 462 560 q 485 552 502 540 l 502 563 l 603 563 l 603 314 q 603 304 604 293 q 605 282 609 272 q 613 262 619 254 q 625 247 636 244 q 671 236 688 279 q 706 322 706 405 q 706 465 688 512 q 670 559 635 588 q 599 618 546 634 q 492 651 420 651 q 348 651 296 626 q 244 601 210 561 q 177 521 160 470 q 144 420 144 369 q 144 321 154 268 q 164 216 192 172 q 221 129 271 101 q 321 73 401 73 q 456 73 490 80 q 525 87 544 96 q 563 104 570 112 q 577 119 578 120 l 654 54 q 643 42 624 30 q 604 18 574 8 q 544 -1 502 -8 q 459 -14 401 -14 q 317 -14 250 12 q 184 38 138 88 q 92 137 68 208 q 43 279 43 369 q 43 445 68 512 q 93 579 140 630 q 192 687 263 716 q 334 745 420 745 q 601 745 700 661 z m 502 388 q 502 402 498 418 q 495 434 486 448 q 476 461 458 470 q 439 479 408 479 q 381 479 364 467 q 347 455 338 437 q 328 419 324 398 q 321 378 321 361 q 321 326 329 304 q 337 282 350 268 q 363 255 378 250 q 393 245 407 245 q 425 245 442 250 q 459 254 472 266 q 485 277 494 296 q 502 314 502 341 z"},".":{"x_min":0,"x_max":192,"ha":192,"o":"m 172 66 q 172 35 150 14 q 129 -8 98 -8 q 68 -8 46 14 q 25 35 25 66 q 25 96 46 118 q 68 139 98 139 q 129 139 150 118 q 172 96 172 66 z"},"p":{"x_min":0,"x_max":678,"ha":678,"o":"m 406 732 q 460 732 508 712 q 555 691 590 656 q 625 621 646 574 q 666 526 666 472 q 666 418 648 372 q 630 326 595 292 q 560 257 506 238 q 453 218 383 218 l 220 218 l 220 0 l 80 0 l 80 732 z m 406 344 q 437 344 460 354 q 483 365 498 383 q 512 401 519 424 q 526 447 526 472 q 526 497 517 522 q 508 546 491 565 q 474 584 449 596 q 424 608 391 608 l 220 608 l 220 344 z"},"X":{"x_min":0,"x_max":754,"ha":754,"o":"m 296 362 l 18 731 l 193 731 l 383 468 l 573 731 l 747 731 l 470 362 l 742 0 l 567 0 l 383 255 l 199 0 l 24 0 z"},"*":{"x_min":0,"x_max":435,"ha":435,"o":"m 216 473 l 150 380 l 71 433 l 144 526 l 31 565 l 60 650 l 170 611 l 170 730 l 263 730 l 263 611 l 372 650 l 401 565 l 289 526 l 362 433 l 282 380 z"},"Y":{"x_min":0,"x_max":709,"ha":709,"o":"m 704 731 q 676 685 640 626 q 603 567 565 506 q 527 444 490 384 q 453 325 425 277 l 425 0 l 285 0 l 285 277 q 220 391 147 504 q 74 617 8 731 l 171 731 q 216 656 263 576 q 310 496 355 421 q 377 456 401 496 q 425 536 449 576 q 473 617 496 656 q 520 696 541 731 z"},"c":{"x_min":0,"x_max":778,"ha":778,"o":"m 750 180 q 726 136 691 100 q 656 65 614 40 q 571 14 522 0 q 472 -14 419 -14 q 341 -14 272 16 q 203 46 152 98 q 100 149 70 218 q 40 287 40 365 q 40 443 70 512 q 100 581 152 632 q 203 684 272 714 q 341 744 419 744 q 472 744 522 730 q 571 716 614 690 q 656 665 691 630 q 726 594 750 551 l 619 498 q 603 522 582 543 q 560 564 534 580 q 508 596 479 605 q 450 614 419 614 q 369 614 326 594 q 282 573 250 539 q 218 505 199 460 q 180 414 180 365 q 180 315 199 270 q 218 225 250 191 q 282 157 326 136 q 369 116 419 116 q 450 116 479 125 q 508 134 534 150 q 560 166 582 188 q 603 209 619 233 z"},"!":{"x_min":0,"x_max":293,"ha":293,"o":"m 196 213 l 96 213 l 71 731 l 221 731 z m 216 0 l 76 0 l 76 149 l 216 149 z"},"/":{"x_min":0,"x_max":542,"ha":542,"o":"m -25 -138 l 420 834 l 550 834 l 105 -138 z"},"[":{"x_min":0,"x_max":390,"ha":390,"o":"m 363 -158 l 92 -158 l 92 899 l 363 899 l 363 774 l 232 774 l 232 -33 l 363 -33 z"},"6":{"x_min":0,"x_max":649,"ha":649,"o":"m 342 498 q 399 501 446 483 q 492 465 525 431 q 558 397 576 349 q 594 301 595 243 q 595 208 589 180 q 583 152 574 130 q 564 108 552 92 q 540 75 528 63 q 503 38 474 23 q 446 8 418 0 q 389 -9 364 -12 q 338 -14 319 -14 q 274 -14 233 -2 q 192 11 158 34 q 125 56 100 88 q 76 119 64 157 q 44 220 47 278 q 50 335 77 398 q 86 417 110 456 q 135 495 168 542 q 200 590 236 640 q 272 691 303 733 l 476 733 q 456 706 433 674 q 410 643 387 610 q 364 578 341 546 q 318 514 298 486 q 306 490 317 494 q 328 497 342 498 z m 323 111 q 351 111 376 122 q 400 132 418 150 q 437 167 448 191 q 458 215 458 242 q 458 269 448 293 q 437 317 418 335 q 400 353 376 364 q 351 374 323 374 q 295 374 270 364 q 246 353 228 335 q 210 317 200 293 q 189 269 189 242 q 189 215 200 191 q 210 167 228 150 q 246 132 270 122 q 295 111 323 111 z"},"r":{"x_min":0,"x_max":720,"ha":720,"o":"m 219 0 l 80 0 l 80 732 l 412 732 q 468 732 514 714 q 561 695 594 662 q 627 628 646 582 q 664 535 664 480 q 664 397 622 335 q 581 273 512 246 q 605 124 695 0 l 528 0 q 484 57 442 115 q 400 173 358 233 l 219 233 z m 219 357 l 412 357 q 431 357 452 364 q 472 372 488 388 q 504 403 514 426 q 525 449 525 480 q 525 496 521 518 q 517 540 505 560 q 493 580 471 594 q 449 608 412 608 l 219 608 z"},"2":{"x_min":0,"x_max":642,"ha":642,"o":"m 578 124 l 578 0 l 72 0 l 72 139 q 91 155 124 182 q 156 210 193 241 q 230 272 267 303 q 304 334 332 357 q 365 384 384 406 q 404 427 414 446 q 424 465 426 482 q 429 499 429 516 q 429 546 419 566 q 409 585 392 597 q 376 609 356 614 q 335 619 315 619 q 281 619 258 602 q 236 586 222 565 q 208 544 202 525 q 195 506 194 502 l 194 503 l 59 538 q 66 565 84 600 q 103 636 134 668 q 165 700 210 722 q 255 744 315 744 q 380 744 428 724 q 476 703 508 670 q 539 638 554 598 q 569 557 569 516 q 569 474 558 439 q 548 404 528 373 q 507 342 478 313 q 450 284 414 255 q 400 244 382 228 q 363 212 342 194 q 320 177 298 158 q 275 140 254 124 z"},"{":{"x_min":0,"x_max":412,"ha":412,"o":"m 269 12 q 285 -7 306 -17 q 327 -27 346 -32 q 366 -37 380 -38 q 394 -39 394 -39 l 394 -173 l 393 -173 q 386 -173 361 -171 q 336 -169 302 -159 q 269 -149 233 -130 q 197 -110 167 -74 q 144 -47 132 -16 q 121 16 116 48 q 111 79 110 108 q 110 138 110 159 q 110 194 110 218 q 111 243 106 260 q 102 277 89 286 q 76 296 49 301 l 49 439 q 74 442 87 454 q 100 466 105 484 q 110 503 110 528 q 110 553 110 581 q 110 602 110 631 q 111 660 116 692 q 121 724 132 756 q 144 787 167 814 q 197 850 234 870 q 272 890 306 899 q 339 908 364 910 q 388 912 394 912 l 394 778 q 394 778 380 777 q 366 776 346 772 q 327 767 306 756 q 285 746 269 728 q 259 716 254 697 q 249 678 246 658 q 244 637 244 617 q 244 597 244 584 q 245 567 246 537 q 246 507 242 474 q 237 442 226 413 q 215 384 193 370 q 215 346 226 320 q 236 294 240 267 q 243 240 242 212 q 242 184 244 156 q 244 142 244 122 q 244 103 246 82 q 249 62 254 43 q 259 24 269 12 z"},"9":{"x_min":0,"x_max":657,"ha":657,"o":"m 311 235 q 254 232 208 252 q 161 273 128 309 q 94 345 76 392 q 58 439 58 490 q 58 525 64 553 q 70 581 80 603 q 90 625 102 642 q 113 658 125 670 q 150 695 178 710 q 207 725 236 734 q 264 742 290 744 q 315 747 334 747 q 379 747 420 734 q 461 722 494 700 q 528 677 552 646 q 577 614 589 576 q 609 513 606 456 q 603 398 576 335 q 567 316 542 277 q 518 238 486 190 q 453 143 417 92 q 381 42 350 0 l 177 0 q 197 27 220 58 q 243 90 266 122 q 289 155 312 187 q 335 219 355 247 q 348 244 337 240 q 326 236 311 235 z m 330 624 q 302 624 278 616 q 253 608 235 592 q 217 576 206 550 q 196 525 196 491 q 196 464 206 440 q 217 416 235 398 q 253 380 278 370 q 302 359 330 359 q 358 359 382 370 q 407 380 426 398 q 444 416 454 440 q 465 464 465 491 q 465 526 454 551 q 444 576 426 592 q 407 609 382 616 q 358 624 330 624 z"}," ":{"x_min":0,"x_max":342,"ha":342,"o":""},"I":{"x_min":0,"x_max":340,"ha":340,"o":"m 240 0 l 100 0 l 100 731 l 240 731 z"},"H":{"x_min":0,"x_max":800,"ha":800,"o":"m 720 732 l 720 0 l 581 0 l 581 291 l 219 291 l 219 0 l 80 0 l 80 732 l 219 732 l 219 416 l 581 416 l 581 732 z"},"4":{"x_min":0,"x_max":672,"ha":672,"o":"m 633 286 l 633 162 l 544 162 l 544 0 l 404 0 l 404 162 l 53 162 l 53 282 l 438 733 l 544 733 l 544 286 z m 404 497 l 232 286 l 404 286 z"},"~":{"x_min":0,"x_max":574,"ha":574,"o":"m 369 326 l 367 326 q 329 327 301 340 q 273 352 250 366 q 232 377 216 384 q 201 392 184 392 q 170 392 160 385 q 150 378 143 370 q 136 361 133 354 q 130 346 129 344 l 44 370 q 48 386 59 405 q 70 424 87 441 q 104 458 128 470 q 152 481 184 481 l 185 481 q 220 481 246 469 q 273 457 296 443 q 315 432 332 424 q 348 416 368 415 q 373 415 387 418 q 401 421 417 441 q 427 454 431 464 q 434 469 436 475 l 521 447 q 515 430 503 409 q 491 388 472 370 q 454 351 428 338 q 402 326 369 326 z"},"D":{"x_min":0,"x_max":786,"ha":786,"o":"m 369 0 l 80 0 l 80 732 l 369 732 q 526 732 627 640 q 681 591 708 522 q 736 452 736 366 q 736 279 708 210 q 681 140 627 91 q 578 46 512 23 q 447 0 369 0 z m 220 124 l 369 124 q 408 124 448 133 q 488 142 520 168 q 553 195 574 242 q 595 289 595 365 q 595 441 574 488 q 553 536 520 562 q 487 588 447 597 q 407 606 369 606 l 220 606 z"},"^":{"x_min":0,"x_max":605,"ha":605,"o":"m 409 373 l 298 611 l 186 373 l 45 373 l 225 738 l 371 738 l 551 373 z"},"0":{"x_min":0,"x_max":747,"ha":747,"o":"m 372 -15 q 299 -15 237 15 q 175 45 130 101 q 88 153 66 220 q 45 288 45 365 q 45 449 69 518 q 93 588 136 638 q 179 688 240 716 q 300 744 372 744 q 443 744 503 716 q 563 687 606 636 q 650 586 674 516 q 699 447 699 365 q 699 289 676 221 q 654 153 612 101 q 567 44 505 14 q 443 -15 372 -15 z m 372 613 q 340 613 307 598 q 274 584 248 554 q 221 524 204 477 q 187 430 187 365 q 187 321 198 276 q 209 232 232 196 q 254 161 289 138 q 324 116 372 116 q 405 116 438 132 q 471 148 498 180 q 524 211 540 258 q 556 304 556 365 q 556 415 542 466 q 529 517 504 549 q 454 613 372 613 z"},"F":{"x_min":0,"x_max":652,"ha":652,"o":"m 220 607 l 220 427 l 573 427 l 573 298 l 220 298 l 220 0 l 80 0 l 80 732 l 618 732 l 618 607 z"},"`":{"x_min":0,"x_max":284,"ha":284,"o":"m 255 771 l 157 771 l 23 872 l 138 922 z"},"k":{"x_min":0,"x_max":735,"ha":735,"o":"m 527 0 l 220 333 l 220 0 l 80 0 l 80 732 l 220 732 l 220 360 l 511 731 l 683 731 l 382 353 l 712 0 z"},"u":{"x_min":0,"x_max":788,"ha":788,"o":"m 394 -13 q 323 -13 265 9 q 207 31 166 71 q 125 111 102 168 q 80 225 80 295 l 80 731 l 220 731 l 220 295 q 220 240 238 204 q 256 168 282 147 q 309 126 340 118 q 370 110 394 110 q 418 110 448 118 q 479 126 506 147 q 532 168 550 204 q 568 240 568 295 l 568 731 l 708 731 l 708 295 q 708 225 686 168 q 664 111 623 71 q 582 31 524 9 q 466 -13 394 -13 z"},"]":{"x_min":0,"x_max":336,"ha":336,"o":"m 0 -158 l 0 -33 l 131 -33 l 131 774 l 0 774 l 0 899 l 271 899 l 271 -158 z"},"U":{"x_min":0,"x_max":788,"ha":788,"o":"m 394 -13 q 323 -13 265 9 q 207 31 166 71 q 125 111 102 168 q 80 225 80 295 l 80 731 l 220 731 l 220 295 q 220 240 238 204 q 256 168 282 147 q 309 126 340 118 q 370 110 394 110 q 418 110 448 118 q 479 126 506 147 q 532 168 550 204 q 568 240 568 295 l 568 731 l 708 731 l 708 295 q 708 225 686 168 q 664 111 623 71 q 582 31 524 9 q 466 -13 394 -13 z"},"o":{"x_min":0,"x_max":846,"ha":846,"o":"m 422 -14 q 344 -14 275 16 q 206 46 154 98 q 103 149 73 218 q 43 287 43 366 q 43 444 73 514 q 103 583 154 634 q 206 686 275 716 q 344 746 422 746 q 501 746 570 716 q 639 686 690 634 q 742 583 772 514 q 802 444 802 366 q 802 287 772 218 q 742 149 690 98 q 639 46 570 16 q 501 -14 422 -14 z m 422 615 q 372 615 328 594 q 285 574 252 540 q 220 506 201 460 q 182 415 182 366 q 182 316 201 271 q 220 226 252 192 q 285 157 328 136 q 372 116 422 116 q 472 116 516 136 q 559 157 592 192 q 624 226 643 271 q 662 316 662 366 q 662 415 643 460 q 624 506 592 540 q 559 574 516 594 q 472 615 422 615 z"},"N":{"x_min":0,"x_max":796,"ha":796,"o":"m 701 0 l 219 435 l 219 0 l 80 0 l 80 731 l 95 731 l 576 289 l 576 731 l 716 731 l 716 0 z"},"+":{"x_min":0,"x_max":567,"ha":567,"o":"m 532 313 l 348 313 l 348 126 l 219 126 l 219 313 l 35 313 l 35 436 l 219 436 l 219 623 l 348 623 l 348 436 l 532 436 z"},"G":{"x_min":0,"x_max":828,"ha":828,"o":"m 790 400 q 789 379 789 361 q 788 345 788 330 q 788 314 787 306 q 781 237 750 178 q 718 119 668 76 q 619 34 554 10 q 490 -14 419 -14 q 341 -14 272 16 q 203 46 152 98 q 100 149 70 218 q 40 287 40 365 q 40 443 70 512 q 100 582 152 634 q 203 685 272 715 q 341 745 419 745 q 518 745 600 699 q 683 653 734 576 l 614 503 q 582 550 530 582 q 479 614 419 614 q 369 614 326 594 q 282 573 250 539 q 217 505 198 460 q 179 414 179 365 q 179 315 198 270 q 217 225 250 191 q 282 157 326 136 q 369 116 419 116 q 457 116 492 128 q 527 139 556 160 q 585 181 606 210 q 628 239 638 274 l 368 274 l 368 400 z"},"q":{"x_min":0,"x_max":827,"ha":827,"o":"m 803 128 l 803 -1 l 439 -1 q 337 -1 262 28 q 188 58 139 108 q 90 159 66 227 q 43 295 43 372 q 43 449 72 517 q 102 585 152 636 q 203 686 270 716 q 338 745 415 745 q 492 745 560 716 q 628 686 678 636 q 729 585 758 517 q 788 449 788 372 q 788 339 780 304 q 773 269 756 236 q 739 203 712 175 q 686 147 647 128 z m 182 372 q 182 324 200 281 q 219 238 250 206 q 282 173 324 154 q 367 135 415 135 q 463 135 506 154 q 548 173 580 206 q 611 238 630 281 q 648 324 648 372 q 648 420 630 464 q 611 507 580 539 q 548 571 506 590 q 463 609 415 609 q 367 609 324 590 q 282 571 250 539 q 219 507 200 464 q 182 420 182 372 z"},"d":{"x_min":0,"x_max":786,"ha":786,"o":"m 369 0 l 80 0 l 80 732 l 369 732 q 526 732 627 640 q 681 591 708 522 q 736 452 736 366 q 736 279 708 210 q 681 140 627 91 q 578 46 512 23 q 447 0 369 0 z m 220 124 l 369 124 q 408 124 448 133 q 488 142 520 168 q 553 195 574 242 q 595 289 595 365 q 595 441 574 488 q 553 536 520 562 q 487 588 447 597 q 407 606 369 606 l 220 606 z"},"1":{"x_min":0,"x_max":444,"ha":444,"o":"m 365 733 l 365 0 l 225 0 l 225 492 l 118 390 l 22 492 l 276 733 z"},"5":{"x_min":0,"x_max":616,"ha":616,"o":"m 313 489 q 432 489 498 422 q 565 354 565 233 q 565 179 544 132 q 524 86 484 51 q 448 19 400 2 q 353 -14 300 -14 q 247 -14 208 -4 q 168 7 137 24 q 106 42 82 64 q 58 85 37 107 l 109 207 q 109 207 122 192 q 135 177 160 160 q 185 142 220 128 q 255 113 300 112 q 323 112 346 120 q 368 129 386 144 q 404 160 415 182 q 426 205 426 233 q 426 296 395 336 q 364 375 312 377 q 281 378 257 373 q 233 368 214 358 q 196 349 183 338 q 170 326 160 316 l 54 373 l 121 733 l 519 733 l 519 608 l 234 608 l 209 454 q 232 472 260 480 q 287 489 313 489 z"}}}
